<svg width="338" height="56" viewBox="0 0 338 56" fill="none" xmlns="http://www.w3.org/2000/svg">
<path fill-rule="evenodd" clip-rule="evenodd" d="M30.482 55.9998C34.4902 56.0147 37.916 55.325 40.8679 54.1112C27.8374 55.2303 18.198 42.2115 18.2501 28.0345C18.3021 13.8575 28.0369 0.910423 41.0587 2.12606C38.1155 0.891727 34.6952 0.174564 30.6871 0.160854C15.1736 0.102909 2.54644 12.5584 2.48945 27.9759C2.43307 43.3929 14.9686 55.9418 30.482 55.9998Z" fill="#74899C"/>
<path fill-rule="evenodd" clip-rule="evenodd" d="M50.411 9.02456C60.788 21.2976 44.2127 31.0557 35.9045 18.5469C26.6629 4.63046 5.7729 13.7783 2.48926 27.7925C2.5464 12.4766 15.2058 0.102659 30.7589 0.160843C39.9446 0.194887 46.0473 3.86293 50.411 9.02456Z" fill="#01D0A2"/>
<path fill-rule="evenodd" clip-rule="evenodd" d="M50.3486 47.1655C60.8332 34.8067 44.3032 24.7972 35.8895 37.4094C26.5303 51.4397 5.6749 42.0159 2.48982 27.7925C2.43321 43.3104 15.0211 55.9414 30.5993 55.9998C39.8006 56.0343 45.9393 52.3616 50.3486 47.1655Z" fill="#FFCE00"/>
<path d="M62 28.4847C62 34.6807 66.9737 38.8114 72.6217 38.8114C75.9515 38.8114 78.9863 37.3783 80.8409 34.9336L76.7102 31.8988C75.7829 33.1633 74.2234 33.8799 72.6217 33.8799C69.7555 33.8799 67.1001 31.6881 67.1001 28.4847C67.1001 25.2813 69.7555 23.2582 72.6217 23.2582C74.2234 23.2582 75.7829 23.9326 76.7102 25.197L80.7987 22.1201C78.9442 19.6754 75.9094 18.2845 72.6217 18.2845C66.9737 18.2845 62 22.2887 62 28.4847Z" fill="white"/>
<path d="M84.1625 38.3899H89.3048V8H84.1625V38.3899Z" fill="white"/>
<path d="M112.079 28.4847C112.079 22.2887 107.695 18.2845 102.089 18.2845C96.4835 18.2845 91.8892 22.2887 91.8892 28.4847C91.8892 34.6807 96.4835 38.8114 102.089 38.8114C105.714 38.8114 109.508 37.4204 111.278 34.0485C110.014 33.3741 108.58 32.6154 107.358 31.941C106.431 33.627 104.408 34.47 102.427 34.47C99.5183 34.47 97.3265 32.8683 96.9893 30.255H111.995C112.037 29.7914 112.079 28.9905 112.079 28.4847ZM96.9472 26.7566C97.3265 24.1012 99.434 22.5838 102.132 22.5838C104.661 22.5838 106.684 24.059 107.063 26.7566H96.9472Z" fill="white"/>
<path d="M131.33 38.3899H136.472V18.706H131.33V21.1507C129.897 18.9589 126.989 18.2845 125.218 18.2845C120.034 18.2845 115.187 22.2044 115.187 28.5269C115.187 34.8072 120.034 38.7692 125.218 38.7692C127.157 38.7692 130.066 37.8841 131.33 35.8609V38.3899ZM120.498 28.5269C120.498 25.3235 123.111 23.216 125.935 23.216C128.633 23.216 131.33 25.1127 131.33 28.5269C131.33 31.8988 128.717 33.8377 125.935 33.8377C123.111 33.8377 120.498 31.6881 120.498 28.5269Z" fill="white"/>
<path d="M146.442 31.4352C146.442 26.2086 147.875 23.0896 151.374 23.0896C151.879 23.0896 153.144 23.0896 154.366 23.6375L155.251 19.0011C154.451 18.5796 153.397 18.2845 152.006 18.2845C149.772 18.2845 147.454 19.7597 146.442 23.3425V18.706H141.3V38.3899H146.442V31.4352Z" fill="white"/>
<path d="M166.832 28.4847C166.832 34.6807 171.805 38.8114 177.453 38.8114C180.783 38.8114 183.818 37.3783 185.673 34.9336L181.542 31.8988C180.615 33.1633 179.055 33.8799 177.453 33.8799C174.587 33.8799 171.932 31.6881 171.932 28.4847C171.932 25.2813 174.587 23.2582 177.453 23.2582C179.055 23.2582 180.615 23.9326 181.542 25.197L185.63 22.1201C183.776 19.6754 180.741 18.2845 177.453 18.2845C171.805 18.2845 166.832 22.2887 166.832 28.4847Z" fill="white"/>
<path d="M202.934 29.2013C202.934 32.6154 200.827 33.7956 198.677 33.7956C196.865 33.7956 194.926 32.6154 194.926 29.412V18.706H189.741V30.3393C189.741 35.9031 192.86 38.8114 197.497 38.8114C199.478 38.8114 201.838 37.7155 202.934 35.608V38.3899H208.076V18.706H202.934V29.2013Z" fill="white"/>
<path d="M218.051 31.4352C218.051 26.2086 219.485 23.0896 222.983 23.0896C223.489 23.0896 224.753 23.0896 225.976 23.6375L226.861 19.0011C226.06 18.5796 225.006 18.2845 223.615 18.2845C221.381 18.2845 219.063 19.7597 218.051 23.3425V18.706H212.909V38.3899H218.051V31.4352Z" fill="white"/>
<path d="M235.381 31.4352C235.381 26.2086 236.814 23.0896 240.312 23.0896C240.818 23.0896 242.082 23.0896 243.305 23.6375L244.19 19.0011C243.389 18.5796 242.335 18.2845 240.944 18.2845C238.71 18.2845 236.392 19.7597 235.381 23.3425V18.706H230.238V38.3899H235.381V31.4352Z" fill="white"/>
<path d="M266.123 28.4847C266.123 22.2887 261.74 18.2845 256.134 18.2845C250.528 18.2845 245.933 22.2887 245.933 28.4847C245.933 34.6807 250.528 38.8114 256.134 38.8114C259.758 38.8114 263.552 37.4204 265.322 34.0485C264.058 33.3741 262.625 32.6154 261.402 31.941C260.475 33.627 258.452 34.47 256.471 34.47C253.562 34.47 251.371 32.8683 251.034 30.255H266.039C266.081 29.7914 266.123 28.9905 266.123 28.4847ZM250.991 26.7566C251.371 24.1012 253.478 22.5838 256.176 22.5838C258.705 22.5838 260.728 24.059 261.107 26.7566H250.991Z" fill="white"/>
<path d="M275.596 27.8946C275.596 24.4805 277.577 23.3003 279.895 23.3003C282.129 23.3003 283.646 24.8177 283.646 27.6839V38.3899C284.447 38.3899 287.945 38.3899 288.788 38.3899V26.7566C288.788 21.1928 286.049 18.2845 281.454 18.2845C279.178 18.2845 276.691 19.5068 275.596 21.6143V18.706H270.453V38.3899H275.596V27.8946Z" fill="white"/>
<path d="M293.104 28.4847C293.104 34.6807 298.077 38.8114 303.725 38.8114C307.055 38.8114 310.09 37.3783 311.945 34.9336L307.814 31.8988C306.887 33.1633 305.327 33.8799 303.725 33.8799C300.859 33.8799 298.204 31.6881 298.204 28.4847C298.204 25.2813 300.859 23.2582 303.725 23.2582C305.327 23.2582 306.887 23.9326 307.814 25.197L311.903 22.1201C310.048 19.6754 307.013 18.2845 303.725 18.2845C298.077 18.2845 293.104 22.2887 293.104 28.4847Z" fill="white"/>
<path d="M334.352 18.706H328.873L323.941 30.9715L319.052 18.706H313.573L321.244 36.8725L316.734 48H322.171L334.352 18.706Z" fill="white"/>
</svg>
