<svg width="81" height="82" viewBox="0 0 81 82" fill="none" xmlns="http://www.w3.org/2000/svg">
  <path fill-rule="evenodd" clip-rule="evenodd" d="M79.7 41C79.7 62.6496 62.1496 80.2 40.5 80.2C18.8504 80.2 1.29999 62.6496 1.29999 41C1.29999 19.3504 18.8504 1.8 40.5 1.8C62.1496 1.8 79.7 19.3504 79.7 41Z" stroke="#1C1917" stroke-width="2"/>
  <path d="M2.76559 51.6524L27.1397 27.2783L39.0547 39.1937L48.0869 30.1614L66.5127 48.5872L75.3644 39.7356L79.3165 43.6877" stroke="#1C1917" stroke-width="2"/>
  <path d="M78.8052 32.6476L64.19 18.0323L50.0743 32.1483" stroke="#1C1917" stroke-width="2"/>
  <path d="M43.2097 33.9549L39.5968 30.342L35.3039 34.6348" stroke="#1C1917" stroke-width="2"/>
  <path d="M16.8355 36.4839L7.08063 26.7291L2.31955 31.4901" stroke="#1C1917" stroke-width="2"/>
  <path d="M11.5138 67.3901L22.9439 55.96L30.9256 63.942L48.4481 46.4194L57.8417 55.8129L62.7191 50.9355L73.0159 61.2323" stroke="#1C1917" stroke-width="2"/>
</svg>
